<svg id="Layer_1" data-name="Layer 1" xmlns="http://www.w3.org/2000/svg" xmlns:xlink="http://www.w3.org/1999/xlink" viewBox="0 0 960 540"><defs><style>.cls-1,.cls-9{fill:#fff;}.cls-1{fill-opacity:0.1;}.cls-1,.cls-10,.cls-11,.cls-12,.cls-2,.cls-3,.cls-4,.cls-5,.cls-6,.cls-7,.cls-8,.cls-9{fill-rule:evenodd;}.cls-2{fill:#ff4093;}.cls-3{fill:#ff9e44;}.cls-4{fill:url(#linear-gradient);}.cls-5{fill:url(#linear-gradient-2);}.cls-6{fill:url(#linear-gradient-3);}.cls-7{fill:url(#linear-gradient-4);}.cls-8{fill:url(#linear-gradient-5);}.cls-9{fill-opacity:0.3;}.cls-10{fill:url(#linear-gradient-6);}.cls-11{fill:url(#linear-gradient-7);}.cls-12{fill:url(#linear-gradient-8);}</style><linearGradient id="linear-gradient" x1="-419.17" y1="789.1" x2="-423.54" y2="777.07" gradientTransform="matrix(16.51, 0, 0, -16.51, 7431.41, 13124.2)" gradientUnits="userSpaceOnUse"><stop offset="0" stop-color="#fff" stop-opacity="0.5"/><stop offset="1" stop-color="#fff" stop-opacity="0"/></linearGradient><linearGradient id="linear-gradient-2" x1="-419.31" y1="788.83" x2="-419.31" y2="776.24" gradientTransform="matrix(16.24, 0, 0, -16.24, 7300.13, 12901.92)" gradientUnits="userSpaceOnUse"><stop offset="0" stop-color="#fff" stop-opacity="0.3"/><stop offset="1" stop-color="#fff" stop-opacity="0"/></linearGradient><linearGradient id="linear-gradient-3" x1="-323.24" y1="742.47" x2="-318.56" y2="742.47" gradientTransform="matrix(6.04, 0, 0, -6.04, 2414.1, 4629.33)" gradientUnits="userSpaceOnUse"><stop offset="0" stop-color="#ff9e44"/><stop offset="1" stop-color="#ff4093"/></linearGradient><linearGradient id="linear-gradient-4" x1="-416.13" y1="774.51" x2="-418.19" y2="762.8" gradientTransform="matrix(15.35, 0, 0, -15.35, 6872.35, 12177.64)" gradientUnits="userSpaceOnUse"><stop offset="0" stop-color="#fff" stop-opacity="0.2"/><stop offset="0.64" stop-color="#fff" stop-opacity="0"/><stop offset="1" stop-color="#fff" stop-opacity="0"/></linearGradient><linearGradient id="linear-gradient-5" x1="-391.01" y1="763.86" x2="-382.18" y2="763.86" gradientTransform="matrix(11.4, 0, 0, -11.4, 4982.11, 8977.26)" xlink:href="#linear-gradient-2"/><linearGradient id="linear-gradient-6" x1="-398.57" y1="775.05" x2="-407.41" y2="775.06" gradientTransform="matrix(11.4, 0, 0, -11.4, 4983.41, 8979.47)" xlink:href="#linear-gradient-2"/><linearGradient id="linear-gradient-7" x1="-376.46" y1="758.5" x2="-383.29" y2="758.5" gradientTransform="matrix(8.81, 0, 0, -8.81, 3741.93, 6877.5)" xlink:href="#linear-gradient-2"/><linearGradient id="linear-gradient-8" x1="-363.07" y1="755.81" x2="-356.24" y2="755.81" gradientTransform="matrix(8.81, 0, 0, -8.81, 3740.99, 6875.91)" xlink:href="#linear-gradient-2"/></defs><path class="cls-1" d="M483.77,278.35C437.79,102,475.59,87,489.91,81,504.2,103.5,542,162.07,496,285.37Z"/><path class="cls-2" d="M491.39,267.56c6.39,8,13.5,16.76,18.48,22.89,5.55-16.65-1.86-39.91-10.11-57.3A322.32,322.32,0,0,1,491.39,267.56Z"/><path class="cls-3" d="M452.61,206.05c-8.22,7.88-15.58,22.6-10,45.6,5-.41,12.05-1,18.45-1.56C457.37,233.74,454.62,219.13,452.61,206.05Z"/><path class="cls-4" d="M470.29,288.46c-46-176.38-8.15-191.36,6.14-197.38,14.28,22.52,52.08,81.09,6.06,204.4Z"/><path class="cls-5" d="M482.37,295.48c46-123.31,8.22-181.88-6.06-204.4V292Z"/><path class="cls-6" d="M490.06,153.05c0,10.74-6.32,15.8-14.14,11.3s-14.13-16.87-14.13-27.61,6.32-15.8,14.13-11.3S490.06,142.31,490.06,153.05Z"/><path class="cls-7" d="M487.58,334.54c-3.24-5.27-4.8-12-6.18-17.83-1.6-6.77-2.93-12.53-6.28-14-3.83-1.67-5.55,2.57-8,8.44h0a66,66,0,0,1-5.55,11.3,36.89,36.89,0,0,0-8.37-6.77c-12.31-7.09-22.58-1-25,13.68a53.58,53.58,0,0,0-5.06-3.42c-19.76-11.37-35.75,1.52-35.75,28.88s16,58.68,35.71,70.05c19.16,11,34.82-.82,35.71-26.5,3.61,6.69,8.41,12.3,13.73,15.35a19.36,19.36,0,0,0,4,1.75c7.66,16.83,19.08,31.32,31.84,38.68,23.06,13.31,41.78-1.71,41.81-33.52s-18.71-68.42-41.77-81.72C500.82,334.54,493.72,333.21,487.58,334.54Z"/><path class="cls-8" d="M524.17,213.23l100.7,58.09,0,52.43L533.1,270.8l-8.89,2.9Z"/><path class="cls-2" d="M595.3,280.32V266.09l38,21.92v14.24Z"/><path class="cls-9" d="M550,240.81,572,253.52v4.6L550,245.42Z"/><path class="cls-9" d="M550,250l39.8,23v4.61l-39.8-23Z"/><path class="cls-9" d="M550,259.17l51.52,29.73v4.6L550,263.77Z"/><path class="cls-2" d="M544.59,242.52c0,4.31-2.56,6.35-5.73,4.53s-5.72-6.8-5.72-11.11,2.56-6.35,5.72-4.53S544.59,238.21,544.59,242.52Z"/><path class="cls-10" d="M438.09,139.69l-100.7-58,0,52.43L429.24,187l8.89,13.16Z"/><path class="cls-3" d="M326.69,102.06V87.83l38,21.92V124Z"/><path class="cls-9" d="M412,137.37l-22.06-12.71v4.6L412,142Z"/><path class="cls-9" d="M412.07,146.59l-42.52-24.53v4.61l42.52,24.53Z"/><path class="cls-9" d="M412.1,155.79l-51.52-29.73v4.61L412.1,160.4Z"/><path class="cls-3" d="M417.3,145.22c0,4.31,2.56,9.29,5.73,11.11s5.72-.22,5.72-4.53-2.56-9.29-5.72-11.11S417.3,140.91,417.3,145.22Z"/><path class="cls-11" d="M424.59,195.34l-60.16-34.67V192l60.16,34.67Z"/><path class="cls-9" d="M379.77,177l20.61,11.9v3.75l-20.61-11.89Z"/><path class="cls-9" d="M379.77,184.51l38.54,22.22v3.79L379.77,188.3Z"/><path class="cls-3" d="M376.65,178.13c0,2.57-1.52,3.79-3.42,2.72s-3.42-4.06-3.42-6.66,1.52-3.79,3.42-2.71A8.48,8.48,0,0,1,376.65,178.13Z"/><path class="cls-12" d="M602.47,218.88l-60.15-34.67V215.5l60.15,34.71Z"/><path class="cls-9" d="M557.66,200.57l20.61,11.89v3.76l-20.61-11.89Z"/><path class="cls-9" d="M557.7,208.09l38.53,22.22v3.79L557.7,211.88Z"/><path class="cls-2" d="M554.54,201.71c0,2.57-1.53,3.79-3.42,2.71s-3.43-4-3.43-6.65,1.53-3.79,3.43-2.71S554.54,199.15,554.54,201.71Z"/></svg>