<svg xmlns="http://www.w3.org/2000/svg" width="275" height="275" fill="none"><g clip-path="url(#a)"><path fill="#fff" d="M1.236 131.789c-2.245 3.33-1.44 8.229 2.477 10.432l118.953 66.911a28.327 28.327 0 0 0 27.651.069l120.462-66.962c3.958-2.201 4.766-7.148 2.483-10.488l-112.722 62.66a49.16 49.16 0 0 1-3.235 1.646l-10.92 6.071a20.237 20.237 0 0 1-19.751-.05l-10.159-5.715a49.545 49.545 0 0 1-4.126-2.073L1.236 131.789ZM239.007 122.087l-93.114-48.474a20.233 20.233 0 0 0-18.773.046l-91.944 48.435-8.398-4.724 96.57-50.872a28.328 28.328 0 0 1 26.283-.064l97.853 50.941-8.477 4.712Z"/><path fill="#fff" d="m34.53 150.516-7.75 4.083 8.397 4.724 7.751-4.083-8.398-4.724ZM204.422 141.312l-58.529-30.469a20.234 20.234 0 0 0-18.773.046l-57.765 30.43-8.398-4.724 62.391-32.867a28.33 28.33 0 0 1 26.283-.064l63.267 32.937-8.476 4.711ZM231.088 155.194l7.919 4.123 8.476-4.712-7.919-4.122-8.476 4.711ZM3.713 179.451c-3.916-2.203-4.722-7.103-2.476-10.433l111.112 62.501a49.52 49.52 0 0 0 4.118 2.07l10.167 5.719a20.234 20.234 0 0 0 19.751.05l10.93-6.076a49.617 49.617 0 0 0 3.225-1.642l112.722-62.66c2.283 3.34 1.476 8.288-2.483 10.489l-120.462 66.963a28.327 28.327 0 0 1-27.651-.07L3.713 179.451Z"/><path stroke="#fff" stroke-width="8.093" d="M125.23 32.85 5.771 95.777c-2.268 1.196-2.313 4.429-.078 5.686l118.954 66.911a24.277 24.277 0 0 0 23.7.06l120.462-66.963c2.254-1.253 2.21-4.51-.078-5.7L147.758 32.793a24.28 24.28 0 0 0-22.528.055Z"/><path fill="url(#b)" d="m127.969 119.149-31.781 16.893c-1.128.599-1.15 2.207-.04 2.837l30.558 17.343a21.042 21.042 0 0 0 20.681.053l31.007-17.392c1.12-.628 1.098-2.248-.039-2.845l-32.237-16.933a19.424 19.424 0 0 0-18.149.044Z"/></g><defs><linearGradient id="b" x1="94.088" x2="181.665" y1="124.498" y2="135.28" gradientUnits="userSpaceOnUse"><stop stop-color="#31FE7D"/><stop offset="1" stop-color="#22D4F0"/></linearGradient><clipPath id="a"><path fill="#fff" d="M0 0h275v275H0z"/></clipPath></defs></svg>